{
  "accessors": [
    {
      "bufferView": 2,
      "componentType": 5126,
      "count": 61011,
      "max": [1.044938325881958, 2.334193229675293, 2.96504545211792],
      "min": [-1.1459217071533203, -0.05404186248779297, -1.8944997787475586],
      "type": "VEC3"
    },
    {
      "bufferView": 2,
      "byteOffset": 732132,
      "componentType": 5126,
      "count": 61011,
      "max": [0.9999827146530151, 0.9999999403953552, 0.9999648332595825],
      "min": [-0.9999968409538269, -0.9999998807907104, -0.9998379945755005],
      "type": "VEC3"
    },
    {
      "bufferView": 3,
      "componentType": 5126,
      "count": 61011,
      "max": [0.9999997019767761, 0.9999839067459106, 0.9999989867210388, 1.0],
      "min": [
        -0.9999775886535645, -0.9999954104423523, -0.9999998211860657, -1.0
      ],
      "type": "VEC4"
    },
    {
      "bufferView": 1,
      "componentType": 5126,
      "count": 61011,
      "max": [0.9018879532814026, 0.9822981357574463],
      "min": [0.0058445315808057785, 0.21181976795196533],
      "type": "VEC2"
    },
    {
      "bufferView": 1,
      "byteOffset": 488088,
      "componentType": 5126,
      "count": 61011,
      "max": [0.9018879532814026, 0.9822981357574463],
      "min": [0.0058445315808057785, 0.21181976795196533],
      "type": "VEC2"
    },
    {
      "bufferView": 1,
      "byteOffset": 976176,
      "componentType": 5126,
      "count": 61011,
      "max": [0.9018879532814026, 0.9822981357574463],
      "min": [0.0058445315808057785, 0.21181976795196533],
      "type": "VEC2"
    },
    {
      "bufferView": 1,
      "byteOffset": 1464264,
      "componentType": 5126,
      "count": 61011,
      "max": [0.9018879532814026, 0.9822981357574463],
      "min": [0.0058445315808057785, 0.21181976795196533],
      "type": "VEC2"
    },
    {
      "bufferView": 1,
      "byteOffset": 1952352,
      "componentType": 5126,
      "count": 61011,
      "max": [0.9018879532814026, 0.9822981357574463],
      "min": [0.0058445315808057785, 0.21181976795196533],
      "type": "VEC2"
    },
    {
      "bufferView": 0,
      "componentType": 5125,
      "count": 344592,
      "type": "SCALAR"
    }
  ],
  "asset": {
    "extras": {
      "author": "karlostefanek (https://sketchfab.com/karlostefanek)",
      "license": "CC-BY-4.0 (http://creativecommons.org/licenses/by/4.0/)",
      "source": "https://sketchfab.com/3d-models/karlo-stefanek-crocs-a839c1905478439a9080a1156cb36363",
      "title": "karlo štefanek crocs"
    },
    "generator": "Sketchfab-14.75.0",
    "version": "2.0"
  },
  "bufferViews": [
    {
      "buffer": 0,
      "byteLength": 1378368,
      "name": "floatBufferViews",
      "target": 34963
    },
    {
      "buffer": 0,
      "byteLength": 2440440,
      "byteOffset": 1378368,
      "byteStride": 8,
      "name": "floatBufferViews",
      "target": 34962
    },
    {
      "buffer": 0,
      "byteLength": 1464264,
      "byteOffset": 3818808,
      "byteStride": 12,
      "name": "floatBufferViews",
      "target": 34962
    },
    {
      "buffer": 0,
      "byteLength": 976176,
      "byteOffset": 5283072,
      "byteStride": 16,
      "name": "floatBufferViews",
      "target": 34962
    }
  ],
  "buffers": [
    {
      "byteLength": 6259248,
      "uri": "scene.bin"
    }
  ],
  "extensionsUsed": ["KHR_texture_transform", "KHR_materials_specular"],
  "images": [
    {
      "uri": "textures/lambert2_baseColor.jpeg"
    },
    {
      "uri": "textures/lambert2_metallicRoughness.png"
    },
    {
      "uri": "textures/lambert2_normal.png"
    }
  ],
  "materials": [
    {
      "doubleSided": true,
      "extensions": {
        "KHR_materials_specular": {
          "specularColorFactor": [1.0, 1.0, 1.0],
          "specularFactor": 0.5156269963434593
        }
      },
      "name": "lambert2",
      "normalTexture": {
        "index": 2
      },
      "pbrMetallicRoughness": {
        "baseColorTexture": {
          "extensions": {
            "KHR_texture_transform": {
              "offset": [0.13532569121802074, 0],
              "scale": [2.0221469997663952, 3.4037854166249324]
            }
          },
          "index": 0
        },
        "metallicRoughnessTexture": {
          "index": 1
        }
      }
    }
  ],
  "meshes": [
    {
      "name": "Object_0",
      "primitives": [
        {
          "attributes": {
            "NORMAL": 1,
            "POSITION": 0,
            "TANGENT": 2,
            "TEXCOORD_0": 3,
            "TEXCOORD_1": 4,
            "TEXCOORD_2": 5,
            "TEXCOORD_3": 6,
            "TEXCOORD_4": 7
          },
          "indices": 8,
          "material": 0,
          "mode": 4
        }
      ]
    }
  ],
  "nodes": [
    {
      "children": [1],
      "matrix": [
        1.0, 0.0, 0.0, 0.0, 0.0, 2.220446049250313e-16, -1.0, 0.0, 0.0, 1.0,
        2.220446049250313e-16, 0.0, 0.0, 0.0, 0.0, 1.0
      ],
      "name": "Sketchfab_model"
    },
    {
      "children": [2],
      "name": "root"
    },
    {
      "children": [3],
      "matrix": [
        1.0, 0.0, 0.0, 0.0, 0.0, 2.220446049250313e-16, 1.0, 0.0, 0.0, -1.0,
        2.220446049250313e-16, 0.0, 0.0, 0.0, 0.0, 1.0
      ],
      "name": "GLTF_SceneRootNode"
    },
    {
      "children": [4],
      "matrix": [
        1.0, 0.0, 0.0, 0.0, 0.0, 3.82856880455694e-16, -1.0, 0.0, 0.0, 1.0,
        3.82856880455694e-16, 0.0, 0.0, 4.930380657631324e-32,
        -2.220446049250313e-16, 1.0
      ],
      "name": "Sketchfab_model_0"
    },
    {
      "children": [5],
      "matrix": [
        1.0, 0.0, 0.0, 0.0, 0.0, 0.0, 1.0, 0.0, 0.0, -1.0, 0.0, 0.0, 0.0, 0.0,
        0.0, 1.0
      ],
      "name": "5aa7dfcf09aa4804aaa7e2c5b34d0806.fbx_1"
    },
    {
      "children": [6],
      "name": "RootNode_2"
    },
    {
      "children": [7],
      "name": "polySurface1_3"
    },
    {
      "children": [8],
      "name": "polySurface1_lambert2_0_4"
    },
    {
      "mesh": 0,
      "name": "Object_8"
    }
  ],
  "samplers": [
    {
      "magFilter": 9729,
      "minFilter": 9987,
      "wrapS": 10497,
      "wrapT": 10497
    }
  ],
  "scene": 0,
  "scenes": [
    {
      "name": "Sketchfab_Scene",
      "nodes": [0]
    }
  ],
  "textures": [
    {
      "sampler": 0,
      "source": 0
    },
    {
      "sampler": 0,
      "source": 1
    },
    {
      "sampler": 0,
      "source": 2
    }
  ]
}
