{
  "accessors": [
    {
      "bufferView": 2,
      "componentType": 5126,
      "count": 65532,
      "max": [0.006315000355243683, -0.4641546607017517, 0.5595365166664124],
      "min": [-0.2186790406703949, -0.6784721612930298, 0.4465330243110657],
      "type": "VEC3"
    },
    {
      "bufferView": 2,
      "byteOffset": 786384,
      "componentType": 5126,
      "count": 65532,
      "max": [0.9998665452003479, 0.9988382458686829, 0.9999998211860657],
      "min": [-0.9999591708183289, -0.9998641014099121, -0.9999997615814209],
      "type": "VEC3"
    },
    {
      "bufferView": 1,
      "componentType": 5126,
      "count": 65532,
      "max": [0.9994513988494873, 0.9916990995407104],
      "min": [0.00048828125, 0.0007069302955642343],
      "type": "VEC2"
    },
    {
      "bufferView": 1,
      "byteOffset": 524256,
      "componentType": 5126,
      "count": 65532,
      "max": [0.9994513988494873, 0.9916990995407104],
      "min": [0.00048828125, 0.0007069302955642343],
      "type": "VEC2"
    },
    {
      "bufferView": 0,
      "componentType": 5125,
      "count": 293280,
      "type": "SCALAR"
    },
    {
      "bufferView": 2,
      "byteOffset": 1572768,
      "componentType": 5126,
      "count": 65532,
      "max": [0.014909535646438599, -0.46727216243743896, 0.559393584728241],
      "min": [-0.20825910568237305, -0.6417348980903625, 0.4478084444999695],
      "type": "VEC3"
    },
    {
      "bufferView": 2,
      "byteOffset": 2359152,
      "componentType": 5126,
      "count": 65532,
      "max": [0.9999973177909851, 0.9999507665634155, 0.999975323677063],
      "min": [-0.9998999834060669, -0.9993991851806641, -0.9999889135360718],
      "type": "VEC3"
    },
    {
      "bufferView": 1,
      "byteOffset": 1048512,
      "componentType": 5126,
      "count": 65532,
      "max": [0.9994894862174988, 0.9760740995407104],
      "min": [0.00048828125, 0.0004974199691787362],
      "type": "VEC2"
    },
    {
      "bufferView": 1,
      "byteOffset": 1572768,
      "componentType": 5126,
      "count": 65532,
      "max": [0.9994894862174988, 0.9760740995407104],
      "min": [0.00048828125, 0.0004974199691787362],
      "type": "VEC2"
    },
    {
      "bufferView": 0,
      "byteOffset": 1173120,
      "componentType": 5125,
      "count": 255678,
      "type": "SCALAR"
    },
    {
      "bufferView": 2,
      "byteOffset": 3145536,
      "componentType": 5126,
      "count": 65532,
      "max": [0.008691169321537018, -0.5056332349777222, 0.5595110058784485],
      "min": [-0.21691927313804626, -0.6844378709793091, 0.44593700766563416],
      "type": "VEC3"
    },
    {
      "bufferView": 2,
      "byteOffset": 3931920,
      "componentType": 5126,
      "count": 65532,
      "max": [0.9994080662727356, 0.9997186064720154, 0.9999788999557495],
      "min": [-0.9996989965438843, -0.9999618530273438, -0.9999963045120239],
      "type": "VEC3"
    },
    {
      "bufferView": 1,
      "byteOffset": 2097024,
      "componentType": 5126,
      "count": 65532,
      "max": [0.9994547367095947, 0.9624022245407104],
      "min": [0.00048828125, 0.0005178047576919198],
      "type": "VEC2"
    },
    {
      "bufferView": 1,
      "byteOffset": 2621280,
      "componentType": 5126,
      "count": 65532,
      "max": [0.9994547367095947, 0.9624022245407104],
      "min": [0.00048828125, 0.0005178047576919198],
      "type": "VEC2"
    },
    {
      "bufferView": 0,
      "byteOffset": 2195832,
      "componentType": 5125,
      "count": 293967,
      "type": "SCALAR"
    },
    {
      "bufferView": 2,
      "byteOffset": 4718304,
      "componentType": 5126,
      "count": 65532,
      "max": [-0.02717059850692749, -0.4604089856147766, 0.5595301389694214],
      "min": [-0.22744081914424896, -0.6839771866798401, 0.4464978575706482],
      "type": "VEC3"
    },
    {
      "bufferView": 2,
      "byteOffset": 5504688,
      "componentType": 5126,
      "count": 65532,
      "max": [0.999945342540741, 0.999995768070221, 0.999595582485199],
      "min": [-0.9999443888664246, -0.9999684691429138, -0.9999963641166687],
      "type": "VEC3"
    },
    {
      "bufferView": 1,
      "byteOffset": 3145536,
      "componentType": 5126,
      "count": 65532,
      "max": [0.9994438886642456, 0.9916990995407104],
      "min": [0.00048828125, 0.0005888534942641854],
      "type": "VEC2"
    },
    {
      "bufferView": 1,
      "byteOffset": 3669792,
      "componentType": 5126,
      "count": 65532,
      "max": [0.9994438886642456, 0.9916990995407104],
      "min": [0.00048828125, 0.0005888534942641854],
      "type": "VEC2"
    },
    {
      "bufferView": 0,
      "byteOffset": 3371700,
      "componentType": 5125,
      "count": 281226,
      "type": "SCALAR"
    },
    {
      "bufferView": 2,
      "byteOffset": 6291072,
      "componentType": 5126,
      "count": 65532,
      "max": [0.014845207333564758, -0.46043452620506287, 0.5595389008522034],
      "min": [-0.22870126366615295, -0.6844378709793091, 0.45027461647987366],
      "type": "VEC3"
    },
    {
      "bufferView": 2,
      "byteOffset": 7077456,
      "componentType": 5126,
      "count": 65532,
      "max": [0.9999688267707825, 0.9999849200248718, 0.9999933838844299],
      "min": [-0.9999709129333496, -0.999866783618927, -0.9999868869781494],
      "type": "VEC3"
    },
    {
      "bufferView": 1,
      "byteOffset": 4194048,
      "componentType": 5126,
      "count": 65532,
      "max": [0.9994956851005554, 0.9956053495407104],
      "min": [0.00048828125, 0.0004900885978713632],
      "type": "VEC2"
    },
    {
      "bufferView": 1,
      "byteOffset": 4718304,
      "componentType": 5126,
      "count": 65532,
      "max": [0.9994956851005554, 0.9956053495407104],
      "min": [0.00048828125, 0.0004900885978713632],
      "type": "VEC2"
    },
    {
      "bufferView": 0,
      "byteOffset": 4496604,
      "componentType": 5125,
      "count": 245289,
      "type": "SCALAR"
    },
    {
      "bufferView": 2,
      "byteOffset": 7863840,
      "componentType": 5126,
      "count": 20454,
      "max": [-0.026997417211532593, -0.5717162489891052, 0.5595015287399292],
      "min": [-0.1467355489730835, -0.6830981373786926, 0.448458731174469],
      "type": "VEC3"
    },
    {
      "bufferView": 2,
      "byteOffset": 8109288,
      "componentType": 5126,
      "count": 20454,
      "max": [0.9999299049377441, 0.9990633726119995, 0.9999246597290039],
      "min": [-0.9987784028053284, -0.9995765089988708, -0.9999806880950928],
      "type": "VEC3"
    },
    {
      "bufferView": 1,
      "byteOffset": 5242560,
      "componentType": 5126,
      "count": 20454,
      "max": [0.9994708299636841, 0.9802311062812805],
      "min": [0.00048828125, 0.000529427663423121],
      "type": "VEC2"
    },
    {
      "bufferView": 1,
      "byteOffset": 5406192,
      "componentType": 5126,
      "count": 20454,
      "max": [0.9994708299636841, 0.9802311062812805],
      "min": [0.00048828125, 0.000529427663423121],
      "type": "VEC2"
    },
    {
      "bufferView": 0,
      "byteOffset": 5477760,
      "componentType": 5125,
      "count": 63156,
      "type": "SCALAR"
    }
  ],
  "asset": {
    "extras": {
      "author": "kutson.blend (https://sketchfab.com/kutson.blend)",
      "license": "CC-BY-4.0 (http://creativecommons.org/licenses/by/4.0/)",
      "source": "https://sketchfab.com/3d-models/crocs-shoe-af005252315d47ffb095acee69b1890c",
      "title": "Crocs shoe"
    },
    "generator": "Sketchfab-14.52.0",
    "version": "2.0"
  },
  "bufferViews": [
    {
      "buffer": 0,
      "byteLength": 5730384,
      "name": "floatBufferViews",
      "target": 34963
    },
    {
      "buffer": 0,
      "byteLength": 5569824,
      "byteOffset": 5730384,
      "byteStride": 8,
      "name": "floatBufferViews",
      "target": 34962
    },
    {
      "buffer": 0,
      "byteLength": 8354736,
      "byteOffset": 11300208,
      "byteStride": 12,
      "name": "floatBufferViews",
      "target": 34962
    }
  ],
  "buffers": [
    {
      "byteLength": 19654944,
      "uri": "scene.bin"
    }
  ],
  "extensionsUsed": ["KHR_materials_unlit"],
  "images": [
    {
      "uri": "textures/tex_u1_v1_baseColor.jpeg"
    }
  ],
  "materials": [
    {
      "doubleSided": true,
      "extensions": {
        "KHR_materials_unlit": {}
      },
      "name": "tex_u1_v1",
      "pbrMetallicRoughness": {
        "baseColorTexture": {
          "index": 0
        },
        "metallicFactor": 0.0
      }
    }
  ],
  "meshes": [
    {
      "name": "model_tex_u1_v1_0",
      "primitives": [
        {
          "attributes": {
            "NORMAL": 1,
            "POSITION": 0,
            "TEXCOORD_0": 2,
            "TEXCOORD_1": 3
          },
          "indices": 4,
          "material": 0,
          "mode": 4
        }
      ]
    },
    {
      "name": "model_tex_u1_v1_0",
      "primitives": [
        {
          "attributes": {
            "NORMAL": 6,
            "POSITION": 5,
            "TEXCOORD_0": 7,
            "TEXCOORD_1": 8
          },
          "indices": 9,
          "material": 0,
          "mode": 4
        }
      ]
    },
    {
      "name": "model_tex_u1_v1_0",
      "primitives": [
        {
          "attributes": {
            "NORMAL": 11,
            "POSITION": 10,
            "TEXCOORD_0": 12,
            "TEXCOORD_1": 13
          },
          "indices": 14,
          "material": 0,
          "mode": 4
        }
      ]
    },
    {
      "name": "model_tex_u1_v1_0",
      "primitives": [
        {
          "attributes": {
            "NORMAL": 16,
            "POSITION": 15,
            "TEXCOORD_0": 17,
            "TEXCOORD_1": 18
          },
          "indices": 19,
          "material": 0,
          "mode": 4
        }
      ]
    },
    {
      "name": "model_tex_u1_v1_0",
      "primitives": [
        {
          "attributes": {
            "NORMAL": 21,
            "POSITION": 20,
            "TEXCOORD_0": 22,
            "TEXCOORD_1": 23
          },
          "indices": 24,
          "material": 0,
          "mode": 4
        }
      ]
    },
    {
      "name": "model_tex_u1_v1_0",
      "primitives": [
        {
          "attributes": {
            "NORMAL": 26,
            "POSITION": 25,
            "TEXCOORD_0": 27,
            "TEXCOORD_1": 28
          },
          "indices": 29,
          "material": 0,
          "mode": 4
        }
      ]
    }
  ],
  "nodes": [
    {
      "children": [1],
      "matrix": [
        1.0, 0.0, 0.0, 0.0, 0.0, 2.220446049250313e-16, -1.0, 0.0, 0.0, 1.0,
        2.220446049250313e-16, 0.0, 0.0, 0.0, 0.0, 1.0
      ],
      "name": "Sketchfab_model"
    },
    {
      "children": [2],
      "matrix": [
        1.0, 0.0, 0.0, 0.0, 0.0, -1.0, 0.0, 0.0, 0.0, 0.0, -1.0, 0.0, 0.0, 0.0,
        0.0, 1.0
      ],
      "name": "model.fbx"
    },
    {
      "children": [3],
      "name": "RootNode"
    },
    {
      "children": [4, 5, 6, 7, 8, 9],
      "name": "model"
    },
    {
      "mesh": 0,
      "name": "model_tex_u1_v1_0"
    },
    {
      "mesh": 1,
      "name": "model_tex_u1_v1_0"
    },
    {
      "mesh": 2,
      "name": "model_tex_u1_v1_0"
    },
    {
      "mesh": 3,
      "name": "model_tex_u1_v1_0"
    },
    {
      "mesh": 4,
      "name": "model_tex_u1_v1_0"
    },
    {
      "mesh": 5,
      "name": "model_tex_u1_v1_0"
    }
  ],
  "samplers": [
    {
      "magFilter": 9729,
      "minFilter": 9987,
      "wrapS": 10497,
      "wrapT": 10497
    }
  ],
  "scene": 0,
  "scenes": [
    {
      "name": "Sketchfab_Scene",
      "nodes": [0]
    }
  ],
  "textures": [
    {
      "sampler": 0,
      "source": 0
    }
  ]
}
