{
  "accessors": [
    {
      "bufferView": 1,
      "componentType": 5126,
      "count": 65532,
      "max": [
        40.276214599609375,
        0.12030021846294403,
        40.27540588378906
      ],
      "min": [
        9.72599983215332,
        -1.5027879476547241,
        9.725168228149414
      ],
      "type": "VEC3"
    },
    {
      "bufferView": 1,
      "byteOffset": 786384,
      "componentType": 5126,
      "count": 65532,
      "max": [
        0.9999260902404785,
        0.9999998807907104,
        0.9998925924301147
      ],
      "min": [
        -0.9925451278686523,
        -1.0,
        -0.9997594356536865
      ],
      "type": "VEC3"
    },
    {
      "bufferView": 2,
      "componentType": 5126,
      "count": 65532,
      "max": [
        0.8313725590705872,
        0.8313725590705872,
        0.8313725590705872,
        1.0
      ],
      "min": [
        0.0313725508749485,
        0.10588235408067703,
        0.16862745583057404,
        1.0
      ],
      "type": "VEC4"
    },
    {
      "bufferView": 0,
      "componentType": 5125,
      "count": 372630,
      "type": "SCALAR"
    },
    {
      "bufferView": 1,
      "byteOffset": 1572768,
      "componentType": 5126,
      "count": 19546,
      "max": [
        40.276756286621094,
        0.11649472266435623,
        40.27275466918945
      ],
      "min": [
        9.724757194519043,
        -1.5027879476547241,
        9.724615097045898
      ],
      "type": "VEC3"
    },
    {
      "bufferView": 1,
      "byteOffset": 1807320,
      "componentType": 5126,
      "count": 19546,
      "max": [
        0.9999260902404785,
        0.9999997615814209,
        0.9998069405555725
      ],
      "min": [
        -0.9999502301216125,
        -1.0,
        -0.9999439120292664
      ],
      "type": "VEC3"
    },
    {
      "bufferView": 2,
      "byteOffset": 1048512,
      "componentType": 5126,
      "count": 19546,
      "max": [
        0.8313725590705872,
        0.8313725590705872,
        0.8313725590705872,
        1.0
      ],
      "min": [
        0.0313725508749485,
        0.09803921729326248,
        0.16078431904315948,
        1.0
      ],
      "type": "VEC4"
    },
    {
      "bufferView": 0,
      "byteOffset": 1490520,
      "componentType": 5125,
      "count": 77358,
      "type": "SCALAR"
    },
    {
      "bufferView": 1,
      "byteOffset": 2041872,
      "componentType": 5126,
      "count": 4696,
      "max": [
        30.184539794921875,
        7.304366111755371,
        36.441471099853516
      ],
      "min": [
        19.795272827148438,
        -0.22331608831882477,
        26.052824020385742
      ],
      "type": "VEC3"
    },
    {
      "bufferView": 1,
      "byteOffset": 2098224,
      "componentType": 5126,
      "count": 4696,
      "max": [
        0.9999431371688843,
        0.9999823570251465,
        0.9997962713241577
      ],
      "min": [
        -0.9999956488609314,
        -0.9999992847442627,
        -0.9998733401298523
      ],
      "type": "VEC3"
    },
    {
      "bufferView": 2,
      "byteOffset": 1361248,
      "componentType": 5126,
      "count": 4696,
      "max": [
        0.8313725590705872,
        0.8313725590705872,
        0.8313725590705872,
        1.0
      ],
      "min": [
        0.7921568751335144,
        0.41960784792900085,
        0.0,
        1.0
      ],
      "type": "VEC4"
    },
    {
      "bufferView": 0,
      "byteOffset": 1799952,
      "componentType": 5125,
      "count": 27465,
      "type": "SCALAR"
    }
  ],
  "asset": {
    "extras": {
      "author": "Rubinstein 3D (https://sketchfab.com/rubinstein3d)",
      "license": "CC-BY-4.0 (http://creativecommons.org/licenses/by/4.0/)",
      "source": "https://sketchfab.com/3d-models/pin-1064a4a4efb14317acffad3e0cfb46c5",
      "title": "Pin_"
    },
    "generator": "Sketchfab-12.67.0",
    "version": "2.0"
  },
  "bufferViews": [
    {
      "buffer": 0,
      "byteLength": 1909812,
      "name": "floatBufferViews",
      "target": 34963
    },
    {
      "buffer": 0,
      "byteLength": 2154576,
      "byteOffset": 1909812,
      "byteStride": 12,
      "name": "floatBufferViews",
      "target": 34962
    },
    {
      "buffer": 0,
      "byteLength": 1436384,
      "byteOffset": 4064388,
      "byteStride": 16,
      "name": "floatBufferViews",
      "target": 34962
    }
  ],
  "buffers": [
    {
      "byteLength": 5500772,
      "uri": "scene.bin"
    }
  ],
  "materials": [
    {
      "doubleSided": true,
      "name": "material_0",
      "pbrMetallicRoughness": {
        "roughnessFactor": 0.2504286522080149
      }
    }
  ],
  "meshes": [
    {
      "name": "Object_0",
      "primitives": [
        {
          "attributes": {
            "COLOR_0": 2,
            "NORMAL": 1,
            "POSITION": 0
          },
          "indices": 3,
          "material": 0,
          "mode": 4
        }
      ]
    },
    {
      "name": "Object_1",
      "primitives": [
        {
          "attributes": {
            "COLOR_0": 6,
            "NORMAL": 5,
            "POSITION": 4
          },
          "indices": 7,
          "material": 0,
          "mode": 4
        }
      ]
    },
    {
      "name": "Object_2",
      "primitives": [
        {
          "attributes": {
            "COLOR_0": 10,
            "NORMAL": 9,
            "POSITION": 8
          },
          "indices": 11,
          "material": 0,
          "mode": 4
        }
      ]
    }
  ],
  "nodes": [
    {
      "children": [
        1
      ],
      "matrix": [
        1.0,
        0.0,
        0.0,
        0.0,
        0.0,
        2.220446049250313e-16,
        -1.0,
        0.0,
        0.0,
        1.0,
        2.220446049250313e-16,
        0.0,
        0.0,
        0.0,
        0.0,
        1.0
      ],
      "name": "Sketchfab_model"
    },
    {
      "children": [
        2,
        3,
        4
      ],
      "name": "Pin..obj.cleaner.materialmerger.gles"
    },
    {
      "mesh": 0,
      "name": "Object_2"
    },
    {
      "mesh": 1,
      "name": "Object_3"
    },
    {
      "mesh": 2,
      "name": "Object_4"
    }
  ],
  "scene": 0,
  "scenes": [
    {
      "name": "Sketchfab_Scene",
      "nodes": [
        0
      ]
    }
  ]
}
