{
  "accessors": [
    {
      "bufferView": 2,
      "componentType": 5126,
      "count": 61011,
      "max": [1.044938325881958, 2.334193229675293, 2.96504545211792],
      "min": [-1.1459217071533203, -0.05404186248779297, -1.8944997787475586],
      "type": "VEC3"
    },
    {
      "bufferView": 2,
      "byteOffset": 732132,
      "componentType": 5126,
      "count": 61011,
      "max": [0.9999828338623047, 0.9999999403953552, 0.9999649524688721],
      "min": [-0.9999967217445374, -0.9999998807907104, -0.9998379945755005],
      "type": "VEC3"
    },
    {
      "bufferView": 3,
      "componentType": 5126,
      "count": 61011,
      "max": [0.9999997019767761, 0.9999839067459106, 0.9999989867210388, 1.0],
      "min": [
        -0.9999775886535645, -0.9999955296516418, -0.9999998211860657, -1.0
      ],
      "type": "VEC4"
    },
    {
      "bufferView": 1,
      "componentType": 5126,
      "count": 61011,
      "max": [0.9018879532814026, 0.9822981357574463],
      "min": [0.0058445315808057785, 0.21181976795196533],
      "type": "VEC2"
    },
    {
      "bufferView": 1,
      "byteOffset": 488088,
      "componentType": 5126,
      "count": 61011,
      "max": [0.9018879532814026, 0.9822981357574463],
      "min": [0.0058445315808057785, 0.21181976795196533],
      "type": "VEC2"
    },
    {
      "bufferView": 0,
      "componentType": 5125,
      "count": 344592,
      "type": "SCALAR"
    }
  ],
  "asset": {
    "extras": {
      "author": "Vladislav Fedulov (https://sketchfab.com/Vlxdxslxv)",
      "license": "CC-BY-4.0 (http://creativecommons.org/licenses/by/4.0/)",
      "source": "https://sketchfab.com/3d-models/crocs-bae-platform-punk-shoe-in-black-d3d879fc0c7045a48763dfe911d1390e",
      "title": "Crocs bae platform punk shoe in black"
    },
    "generator": "Sketchfab-12.68.0",
    "version": "2.0"
  },
  "bufferViews": [
    {
      "buffer": 0,
      "byteLength": 1378368,
      "name": "floatBufferViews",
      "target": 34963
    },
    {
      "buffer": 0,
      "byteLength": 976176,
      "byteOffset": 1378368,
      "byteStride": 8,
      "name": "floatBufferViews",
      "target": 34962
    },
    {
      "buffer": 0,
      "byteLength": 1464264,
      "byteOffset": 2354544,
      "byteStride": 12,
      "name": "floatBufferViews",
      "target": 34962
    },
    {
      "buffer": 0,
      "byteLength": 976176,
      "byteOffset": 3818808,
      "byteStride": 16,
      "name": "floatBufferViews",
      "target": 34962
    }
  ],
  "buffers": [
    {
      "byteLength": 4794984,
      "uri": "scene.bin"
    }
  ],
  "images": [
    {
      "uri": "textures/lambert2_baseColor.png"
    },
    {
      "uri": "textures/lambert2_metallicRoughness.png"
    },
    {
      "uri": "textures/lambert2_normal.png"
    }
  ],
  "materials": [
    {
      "doubleSided": true,
      "name": "lambert2",
      "normalTexture": {
        "index": 2
      },
      "pbrMetallicRoughness": {
        "baseColorTexture": {
          "index": 0
        },
        "metallicRoughnessTexture": {
          "index": 1
        }
      }
    }
  ],
  "meshes": [
    {
      "name": "polySurface1_lambert2_0",
      "primitives": [
        {
          "attributes": {
            "NORMAL": 1,
            "POSITION": 0,
            "TANGENT": 2,
            "TEXCOORD_0": 3,
            "TEXCOORD_1": 4
          },
          "indices": 5,
          "material": 0,
          "mode": 4
        }
      ]
    }
  ],
  "nodes": [
    {
      "children": [1],
      "matrix": [
        1.0, 0.0, 0.0, 0.0, 0.0, 3.828568672208042e-16, -1.0, 0.0, 0.0, 1.0,
        3.828568672208042e-16, 0.0, 0.0, 4.930380657631324e-32,
        -2.220446049250313e-16, 1.0
      ],
      "name": "Sketchfab_model"
    },
    {
      "children": [2],
      "matrix": [
        1.0, 0.0, 0.0, 0.0, 0.0, 0.0, 1.0, 0.0, 0.0, -1.0, 0.0, 0.0, 0.0, 0.0,
        0.0, 1.0
      ],
      "name": "5aa7dfcf09aa4804aaa7e2c5b34d0806.fbx"
    },
    {
      "children": [3],
      "name": "RootNode"
    },
    {
      "children": [4],
      "name": "polySurface1"
    },
    {
      "mesh": 0,
      "name": "polySurface1_lambert2_0"
    }
  ],
  "samplers": [
    {
      "magFilter": 9729,
      "minFilter": 9987,
      "wrapS": 10497,
      "wrapT": 10497
    }
  ],
  "scene": 0,
  "scenes": [
    {
      "name": "Sketchfab_Scene",
      "nodes": [0]
    }
  ],
  "textures": [
    {
      "sampler": 0,
      "source": 0
    },
    {
      "sampler": 0,
      "source": 1
    },
    {
      "sampler": 0,
      "source": 2
    }
  ]
}
