{
  "accessors": [
    {
      "bufferView": 2,
      "componentType": 5126,
      "count": 10158,
      "max": [
        0.6839867234230042,
        1.6581038236618042,
        0.5235366225242615
      ],
      "min": [
        -0.7183535099029541,
        0.4662502706050873,
        -0.1515704095363617
      ],
      "type": "VEC3"
    },
    {
      "bufferView": 2,
      "byteOffset": 121896,
      "componentType": 5126,
      "count": 10158,
      "max": [
        0.9999991655349731,
        0.999939501285553,
        0.9997041821479797
      ],
      "min": [
        -0.9999998807907104,
        -0.9998321533203125,
        -0.9997971653938293
      ],
      "type": "VEC3"
    },
    {
      "bufferView": 3,
      "componentType": 5126,
      "count": 10158,
      "max": [
        0.9999634027481079,
        0.9999755620956421,
        0.9998399615287781,
        1.0
      ],
      "min": [
        -0.9995927810668945,
        -0.9999915361404419,
        -0.9999834895133972,
        -1.0
      ],
      "type": "VEC4"
    },
    {
      "bufferView": 3,
      "byteOffset": 162528,
      "componentType": 5126,
      "count": 10158,
      "max": [
        1.0,
        1.0,
        1.0,
        1.0
      ],
      "min": [
        1.0,
        1.0,
        1.0,
        1.0
      ],
      "type": "VEC4"
    },
    {
      "bufferView": 1,
      "componentType": 5126,
      "count": 10158,
      "max": [
        0.998046875,
        0.6999934911727905
      ],
      "min": [
        0.0019531151046976447,
        0.0019531152211129665
      ],
      "type": "VEC2"
    },
    {
      "bufferView": 0,
      "componentType": 5125,
      "count": 59292,
      "type": "SCALAR"
    },
    {
      "bufferView": 2,
      "byteOffset": 243792,
      "componentType": 5126,
      "count": 14072,
      "max": [
        0.713257372379303,
        0.7379806637763977,
        0.11192149668931961
      ],
      "min": [
        -0.7657155394554138,
        0.5162076354026794,
        -0.10941359400749207
      ],
      "type": "VEC3"
    },
    {
      "bufferView": 2,
      "byteOffset": 412656,
      "componentType": 5126,
      "count": 14072,
      "max": [
        1.0,
        1.0,
        1.0
      ],
      "min": [
        -1.0,
        -1.0,
        -1.0
      ],
      "type": "VEC3"
    },
    {
      "bufferView": 3,
      "byteOffset": 325056,
      "componentType": 5126,
      "count": 14072,
      "max": [
        1.0,
        1.0,
        1.0,
        1.0
      ],
      "min": [
        0.027450980618596077,
        0.019607843831181526,
        0.019607843831181526,
        1.0
      ],
      "type": "VEC4"
    },
    {
      "bufferView": 1,
      "byteOffset": 81264,
      "componentType": 5126,
      "count": 14072,
      "max": [
        1.0009894371032715,
        0.9990136623382568
      ],
      "min": [
        -0.0009894371032714844,
        0.0009863674640655518
      ],
      "type": "VEC2"
    },
    {
      "bufferView": 0,
      "byteOffset": 237168,
      "componentType": 5125,
      "count": 61302,
      "type": "SCALAR"
    },
    {
      "bufferView": 2,
      "byteOffset": 581520,
      "componentType": 5126,
      "count": 65532,
      "max": [
        0.7049288749694824,
        1.7864892482757568,
        0.7185353636741638
      ],
      "min": [
        -0.7977908849716187,
        -1.9197875261306763,
        -0.7103531360626221
      ],
      "type": "VEC3"
    },
    {
      "bufferView": 2,
      "byteOffset": 1367904,
      "componentType": 5126,
      "count": 65532,
      "max": [
        0.9999978542327881,
        0.9999057650566101,
        0.9999381303787231
      ],
      "min": [
        -0.999999463558197,
        -0.9988110065460205,
        -0.9999998211860657
      ],
      "type": "VEC3"
    },
    {
      "bufferView": 3,
      "byteOffset": 550208,
      "componentType": 5126,
      "count": 65532,
      "max": [
        0.9998445510864258,
        0.9997299909591675,
        0.9999961256980896,
        1.0
      ],
      "min": [
        -0.9999921321868896,
        -0.9993122220039368,
        -0.9994640350341797,
        1.0
      ],
      "type": "VEC4"
    },
    {
      "bufferView": 3,
      "byteOffset": 1598720,
      "componentType": 5126,
      "count": 65532,
      "max": [
        1.0,
        1.0,
        1.0,
        1.0
      ],
      "min": [
        0.9960784316062927,
        0.9960784316062927,
        0.9960784316062927,
        1.0
      ],
      "type": "VEC4"
    },
    {
      "bufferView": 1,
      "byteOffset": 193840,
      "componentType": 5126,
      "count": 65532,
      "max": [
        0.8600832223892212,
        0.8554044961929321
      ],
      "min": [
        0.000519894587341696,
        0.0012228693813085556
      ],
      "type": "VEC2"
    },
    {
      "bufferView": 1,
      "byteOffset": 718096,
      "componentType": 5126,
      "count": 65532,
      "max": [
        0.8600832223892212,
        0.8554044961929321
      ],
      "min": [
        0.000519894587341696,
        0.0012228693813085556
      ],
      "type": "VEC2"
    },
    {
      "bufferView": 0,
      "byteOffset": 482376,
      "componentType": 5125,
      "count": 340710,
      "type": "SCALAR"
    },
    {
      "bufferView": 2,
      "byteOffset": 2154288,
      "componentType": 5126,
      "count": 65532,
      "max": [
        0.7053794264793396,
        1.7795302867889404,
        0.6423784494400024
      ],
      "min": [
        -0.8023808002471924,
        -1.6627225875854492,
        -0.7087662220001221
      ],
      "type": "VEC3"
    },
    {
      "bufferView": 2,
      "byteOffset": 2940672,
      "componentType": 5126,
      "count": 65532,
      "max": [
        0.9999989867210388,
        0.9987261891365051,
        0.999996542930603
      ],
      "min": [
        -0.9999993443489075,
        -0.9999339580535889,
        -0.9999982118606567
      ],
      "type": "VEC3"
    },
    {
      "bufferView": 3,
      "byteOffset": 2647232,
      "componentType": 5126,
      "count": 65532,
      "max": [
        0.9992514848709106,
        0.8527959585189819,
        0.9999724626541138,
        1.0
      ],
      "min": [
        -0.9999386668205261,
        -0.9992432594299316,
        -0.9999877214431763,
        1.0
      ],
      "type": "VEC4"
    },
    {
      "bufferView": 3,
      "byteOffset": 3695744,
      "componentType": 5126,
      "count": 65532,
      "max": [
        1.0,
        1.0,
        1.0,
        1.0
      ],
      "min": [
        0.9960784316062927,
        0.9960784316062927,
        0.9960784316062927,
        1.0
      ],
      "type": "VEC4"
    },
    {
      "bufferView": 1,
      "byteOffset": 1242352,
      "componentType": 5126,
      "count": 65532,
      "max": [
        0.9147002100944519,
        0.9662195444107056
      ],
      "min": [
        0.004811404272913933,
        0.004812316969037056
      ],
      "type": "VEC2"
    },
    {
      "bufferView": 1,
      "byteOffset": 1766608,
      "componentType": 5126,
      "count": 65532,
      "max": [
        0.9147002100944519,
        0.9662195444107056
      ],
      "min": [
        0.004811404272913933,
        0.004812316969037056
      ],
      "type": "VEC2"
    },
    {
      "bufferView": 0,
      "byteOffset": 1845216,
      "componentType": 5125,
      "count": 346473,
      "type": "SCALAR"
    },
    {
      "bufferView": 2,
      "byteOffset": 3727056,
      "componentType": 5126,
      "count": 42967,
      "max": [
        0.697586178779602,
        1.786643147468567,
        0.7201917171478271
      ],
      "min": [
        -0.8028762936592102,
        -1.9206500053405762,
        -0.7105081677436829
      ],
      "type": "VEC3"
    },
    {
      "bufferView": 2,
      "byteOffset": 4242660,
      "componentType": 5126,
      "count": 42967,
      "max": [
        0.9999989867210388,
        0.9999294281005859,
        0.9999772310256958
      ],
      "min": [
        -0.9999698400497437,
        -0.999965488910675,
        -0.9999690055847168
      ],
      "type": "VEC3"
    },
    {
      "bufferView": 3,
      "byteOffset": 4744256,
      "componentType": 5126,
      "count": 42967,
      "max": [
        0.9996872544288635,
        0.9784740805625916,
        0.9999961256980896,
        1.0
      ],
      "min": [
        -0.9999300241470337,
        -0.999976396560669,
        -0.9999877214431763,
        1.0
      ],
      "type": "VEC4"
    },
    {
      "bufferView": 3,
      "byteOffset": 5431728,
      "componentType": 5126,
      "count": 42967,
      "max": [
        1.0,
        1.0,
        1.0,
        1.0
      ],
      "min": [
        0.9960784316062927,
        0.9960784316062927,
        0.9960784316062927,
        1.0
      ],
      "type": "VEC4"
    },
    {
      "bufferView": 1,
      "byteOffset": 2290864,
      "componentType": 5126,
      "count": 42967,
      "max": [
        0.9043241739273071,
        0.9995116591453552
      ],
      "min": [
        0.0004882836365140975,
        0.0004882837529294193
      ],
      "type": "VEC2"
    },
    {
      "bufferView": 1,
      "byteOffset": 2634600,
      "componentType": 5126,
      "count": 42967,
      "max": [
        0.9043241739273071,
        0.9995116591453552
      ],
      "min": [
        0.0004882836365140975,
        0.0004882837529294193
      ],
      "type": "VEC2"
    },
    {
      "bufferView": 0,
      "byteOffset": 3231108,
      "componentType": 5125,
      "count": 198489,
      "type": "SCALAR"
    }
  ],
  "asset": {
    "extras": {
      "author": "Javier Villar (https://sketchfab.com/javiervillar)",
      "license": "CC-BY-4.0 (http://creativecommons.org/licenses/by/4.0/)",
      "source": "https://sketchfab.com/3d-models/crocs-a35f0967ccc04771a86ed66239460e2f",
      "title": "Crocs"
    },
    "generator": "Sketchfab-15.0.0",
    "version": "2.0"
  },
  "bufferViews": [
    {
      "buffer": 0,
      "byteLength": 4025064,
      "name": "floatBufferViews",
      "target": 34963
    },
    {
      "buffer": 0,
      "byteLength": 2978336,
      "byteOffset": 4025064,
      "byteStride": 8,
      "name": "floatBufferViews",
      "target": 34962
    },
    {
      "buffer": 0,
      "byteLength": 4758264,
      "byteOffset": 7003400,
      "byteStride": 12,
      "name": "floatBufferViews",
      "target": 34962
    },
    {
      "buffer": 0,
      "byteLength": 6119200,
      "byteOffset": 11761664,
      "byteStride": 16,
      "name": "floatBufferViews",
      "target": 34962
    }
  ],
  "buffers": [
    {
      "byteLength": 17880864,
      "uri": "scene.bin"
    }
  ],
  "extensionsUsed": [
    "KHR_materials_specular"
  ],
  "images": [
    {
      "uri": "textures/Correa_LOW_mat_normal.png"
    },
    {
      "uri": "textures/BOTON__mat_baseColor.jpeg"
    },
    {
      "uri": "textures/CROCK2_LOW_mat_normal.png"
    }
  ],
  "materials": [
    {
      "doubleSided": true,
      "name": "Correa_LOW_mat",
      "normalTexture": {
        "index": 0
      },
      "pbrMetallicRoughness": {
        "baseColorFactor": [
          0.046665086336880095,
          0.046665086336880095,
          0.046665086336880095,
          1.0
        ],
        "metallicFactor": 0.0,
        "roughnessFactor": 0.4663669506413042
      }
    },
    {
      "doubleSided": true,
      "name": "BOTON__mat",
      "pbrMetallicRoughness": {
        "baseColorTexture": {
          "index": 1
        },
        "metallicFactor": 0.0,
        "roughnessFactor": 0.8810792884997279
      }
    },
    {
      "doubleSided": true,
      "extensions": {
        "KHR_materials_specular": {
          "specularColorFactor": [
            1.0,
            1.0,
            1.0
          ],
          "specularFactor": 0.5651158251320703
        }
      },
      "name": "CROCK2_LOW_mat",
      "normalTexture": {
        "index": 2
      },
      "pbrMetallicRoughness": {
        "baseColorFactor": [
          0.0465594722315795,
          0.0465594722315795,
          0.0465594722315795,
          1.0
        ],
        "metallicFactor": 0.0,
        "roughnessFactor": 0.4600703954866293
      }
    }
  ],
  "meshes": [
    {
      "name": "Correa_LOW_Correa_LOW_mat_0",
      "primitives": [
        {
          "attributes": {
            "COLOR_0": 3,
            "NORMAL": 1,
            "POSITION": 0,
            "TANGENT": 2,
            "TEXCOORD_0": 4
          },
          "indices": 5,
          "material": 0,
          "mode": 4
        }
      ]
    },
    {
      "name": "BOTON__BOTON__mat_0",
      "primitives": [
        {
          "attributes": {
            "COLOR_0": 8,
            "NORMAL": 7,
            "POSITION": 6,
            "TEXCOORD_0": 9
          },
          "indices": 10,
          "material": 1,
          "mode": 4
        }
      ]
    },
    {
      "name": "CROCK2_LOW_CROCK2_LOW_mat_0",
      "primitives": [
        {
          "attributes": {
            "COLOR_0": 14,
            "NORMAL": 12,
            "POSITION": 11,
            "TANGENT": 13,
            "TEXCOORD_0": 15,
            "TEXCOORD_1": 16
          },
          "indices": 17,
          "material": 2,
          "mode": 4
        }
      ]
    },
    {
      "name": "CROCK2_LOW_CROCK2_LOW_mat_0",
      "primitives": [
        {
          "attributes": {
            "COLOR_0": 21,
            "NORMAL": 19,
            "POSITION": 18,
            "TANGENT": 20,
            "TEXCOORD_0": 22,
            "TEXCOORD_1": 23
          },
          "indices": 24,
          "material": 2,
          "mode": 4
        }
      ]
    },
    {
      "name": "CROCK2_LOW_CROCK2_LOW_mat_0",
      "primitives": [
        {
          "attributes": {
            "COLOR_0": 28,
            "NORMAL": 26,
            "POSITION": 25,
            "TANGENT": 27,
            "TEXCOORD_0": 29,
            "TEXCOORD_1": 30
          },
          "indices": 31,
          "material": 2,
          "mode": 4
        }
      ]
    }
  ],
  "nodes": [
    {
      "children": [
        1
      ],
      "matrix": [
        1.0,
        0.0,
        0.0,
        0.0,
        0.0,
        2.220446049250313e-16,
        -1.0,
        0.0,
        0.0,
        1.0,
        2.220446049250313e-16,
        0.0,
        0.0,
        0.0,
        0.0,
        1.0
      ],
      "name": "Sketchfab_model"
    },
    {
      "children": [
        2
      ],
      "matrix": [
        0.009999999776482582,
        0.0,
        0.0,
        0.0,
        0.0,
        0.0,
        0.009999999776482582,
        0.0,
        0.0,
        -0.009999999776482582,
        0.0,
        0.0,
        0.0,
        0.0,
        0.0,
        1.0
      ],
      "name": "dfe7275c96984278973a138d815a4887.fbx"
    },
    {
      "children": [
        3,
        5,
        7
      ],
      "name": "RootNode"
    },
    {
      "children": [
        4
      ],
      "matrix": [
        1.0,
        0.0,
        0.0,
        0.0,
        0.0,
        2.220446049250313e-16,
        -1.0,
        0.0,
        0.0,
        1.0,
        2.220446049250313e-16,
        0.0,
        0.0,
        0.0,
        0.0,
        1.0
      ],
      "name": "Correa_LOW"
    },
    {
      "mesh": 0,
      "name": "Correa_LOW_Correa_LOW_mat_0"
    },
    {
      "children": [
        6
      ],
      "matrix": [
        1.0,
        0.0,
        0.0,
        0.0,
        0.0,
        2.220446049250313e-16,
        -1.0,
        0.0,
        0.0,
        1.0,
        2.220446049250313e-16,
        0.0,
        0.0,
        0.0,
        0.0,
        1.0
      ],
      "name": "BOTON_"
    },
    {
      "mesh": 1,
      "name": "BOTON__BOTON__mat_0"
    },
    {
      "children": [
        8,
        9,
        10
      ],
      "matrix": [
        1.0,
        0.0,
        0.0,
        0.0,
        0.0,
        2.220446049250313e-16,
        -1.0,
        0.0,
        0.0,
        1.0,
        2.220446049250313e-16,
        0.0,
        0.0,
        0.0,
        0.0,
        1.0
      ],
      "name": "CROCK2_LOW"
    },
    {
      "mesh": 2,
      "name": "CROCK2_LOW_CROCK2_LOW_mat_0"
    },
    {
      "mesh": 3,
      "name": "CROCK2_LOW_CROCK2_LOW_mat_0"
    },
    {
      "mesh": 4,
      "name": "CROCK2_LOW_CROCK2_LOW_mat_0"
    }
  ],
  "samplers": [
    {
      "magFilter": 9729,
      "minFilter": 9987,
      "wrapS": 10497,
      "wrapT": 10497
    }
  ],
  "scene": 0,
  "scenes": [
    {
      "name": "Sketchfab_Scene",
      "nodes": [
        0
      ]
    }
  ],
  "textures": [
    {
      "sampler": 0,
      "source": 0
    },
    {
      "sampler": 0,
      "source": 1
    },
    {
      "sampler": 0,
      "source": 2
    }
  ]
}
