<svg width="54" height="54" viewBox="0 0 54 54" fill="none" xmlns="http://www.w3.org/2000/svg">
<path d="M2 2H8.75445C9.22606 2 9.63356 2.3295 9.73229 2.79066L14.9122 26.9858C14.9827 27.3153 14.8825 27.6583 14.6456 27.898L7.04393 35.5913C6.41977 36.223 6.86724 37.2942 7.75526 37.2942H41.916M11.6638 7.5281H51.9999L42.1932 26.9644C42.0231 27.3014 41.6779 27.5139 41.3004 27.5139H15.8655M42.6864 47.5357V47.6408C42.6864 50.0483 40.7347 52 38.3271 52C35.9196 52 33.9679 50.0483 33.9679 47.6408V47.5357C33.9679 45.1282 35.9196 43.1765 38.3271 43.1765C40.7347 43.1765 42.6864 45.1282 42.6864 47.5357ZM22.3432 47.5357V47.6408C22.3432 50.0483 20.3915 52 17.984 52C15.5765 52 13.6248 50.0483 13.6248 47.6408V47.5357C13.6248 45.1282 15.5765 43.1765 17.984 43.1765C20.3915 43.1765 22.3432 45.1282 22.3432 47.5357Z" stroke="currentColor"  stroke-width="4" stroke-linecap="round" stroke-linejoin="round"/>
</svg>
