<svg width="54" height="64" viewBox="0 0 54 64" fill="none" xmlns="http://www.w3.org/2000/svg">
<path d="M4 62L50.1733 2M22.6061 7.80366C22.0203 7.17918 21.1415 6.94128 20.3213 7.15936C19.5011 7.37743 18.8665 8.04156 18.6517 8.8742L17.109 15.0695L11.0553 13.3348C10.2351 13.0969 9.35631 13.3348 8.7607 13.9395C8.1651 14.5441 7.93076 15.4362 8.1651 16.2689L9.8738 22.4146L3.77128 23.9907C2.9511 24.1988 2.30667 24.853 2.0821 25.6857C1.85753 26.5183 2.10163 27.4005 2.71676 27.9953L7.22775 32.4559L2.71676 36.9165C2.10163 37.5112 1.86729 38.4033 2.0821 39.236C2.29691 40.0686 2.9511 40.7129 3.77128 40.931L9.8738 42.4971L8.1651 48.6428C7.93076 49.4755 8.1651 50.3676 8.7607 50.9723C9.35631 51.5769 10.2351 51.8148 11.0553 51.5769L17.109 49.8422L18.6517 56.0375C18.8567 56.8702 19.5011 57.5244 20.3213 57.7524C21.1415 57.9804 22.0105 57.7325 22.6061 57.118L26.9999 52.5384L31.3937 57.118C31.9894 57.7325 32.8584 57.9804 33.6785 57.7524C34.4987 57.5244 35.1334 56.8702 35.3482 56.0375L36.8909 49.8422L42.9446 51.5769C43.7648 51.8148 44.6435 51.5769 45.2392 50.9723C45.8348 50.3676 46.0691 49.4755 45.8348 48.6428L44.1261 42.4971L50.2286 40.931C51.0488 40.7228 51.6932 40.0686 51.9178 39.236C52.1423 38.4033 51.8982 37.5211 51.2929 36.9165L46.7819 32.4559L51.2929 27.9953C51.8982 27.3906 52.1423 26.5084 51.9178 25.6758C51.6932 24.8431 51.0488 24.1988 50.2286 23.9807L44.1261 22.4146L45.8348 16.2689C46.0691 15.4362 45.8348 14.5441 45.2392 13.9395C44.6435 13.3348 43.7648 13.0969 42.9446 13.3348L36.8909 15.0695L35.3384 8.8742C35.1334 8.04156 34.4889 7.38734 33.6688 7.15936C32.8486 6.93137 31.9796 7.17918 31.3937 7.80366L26.9999 12.3832L22.6061 7.80366Z" stroke="black" stroke-opacity="0.25" stroke-width="4" stroke-linecap="round"/>
</svg>
