<svg width="54" height="54" viewBox="0 0 54 54" fill="none" xmlns="http://www.w3.org/2000/svg">
<rect width="50" height="50" rx="25" transform="matrix(1.19249e-08 -1 -1 -1.19249e-08 52 52)" stroke="black" stroke-opacity="0.35" stroke-width="4"/>
<path d="M12 23.8651L16.592 27.6221L19.9827 22.7533" stroke="black" stroke-opacity="0.35" stroke-width="3.5" stroke-linecap="round" stroke-linejoin="round"/>
<path d="M29.5348 24.6821L29.5348 22.3333C29.5348 18.4673 26.3892 15.3333 22.5232 15.3333V15.3333C18.6572 15.3333 15.5116 18.4673 15.5116 22.3333L15.5116 23.5135" stroke="black" stroke-opacity="0.35" stroke-width="3.5" stroke-linecap="round"/>
<path d="M42 30.8648L37.408 27.1078L34.0173 31.9766" stroke="black" stroke-opacity="0.35" stroke-width="3.5" stroke-linecap="round" stroke-linejoin="round"/>
<path d="M24.4652 30.0477L24.4652 32.3965C24.4652 36.2625 27.6108 39.3965 31.4768 39.3965V39.3965C35.3428 39.3965 38.4884 36.2625 38.4884 32.3965L38.4884 31.2163" stroke="black" stroke-opacity="0.35" stroke-width="3.5" stroke-linecap="round"/>
</svg>
