<svg width="50" height="50" viewBox="0 0 50 50" fill="none" xmlns="http://www.w3.org/2000/svg">
<path d="M19.1578 2.09607L19.1656 2.10421L19.1734 2.11225L23.5672 6.62323L24.9999 8.09414L26.4326 6.62323L30.8264 2.11225L30.8343 2.10421L30.842 2.09607C30.9231 2.01094 31.034 1.98192 31.1406 2.0111C31.2846 2.05052 31.3735 2.15792 31.3981 2.25635L31.3981 2.25635L31.4002 2.26437L32.9526 8.3669L33.4587 10.3562L35.4342 9.7986L41.4879 8.0899L41.494 8.08815C41.6091 8.05526 41.738 8.08795 41.8249 8.17492C41.9119 8.26188 41.9446 8.39073 41.9117 8.50581L41.91 8.51196L40.2013 14.5657L39.6428 16.5441L41.6359 17.048L47.7266 18.5877C47.8554 18.6232 47.954 18.7224 47.9888 18.8495C48.0172 18.9534 47.9924 19.0785 47.8924 19.1783C47.8917 19.179 47.8909 19.1797 47.8902 19.1804L43.3864 23.5672L41.9155 24.9999L43.3864 26.4326L47.8902 30.8194C47.8909 30.8201 47.8917 30.8209 47.8924 30.8216C47.9924 30.9214 48.0172 31.0465 47.9888 31.1504C47.9493 31.2943 47.8419 31.3833 47.7435 31.4079L47.7384 31.4092L41.6359 32.9519L39.6428 33.4557L40.2013 35.4342L41.91 41.4879L41.9117 41.494C41.9446 41.6091 41.9119 41.738 41.8249 41.8249C41.738 41.9119 41.6091 41.9446 41.494 41.9117L41.4879 41.91L35.4342 40.2013L33.4557 39.6428L32.9519 41.6359L31.4122 47.7266C31.3767 47.8554 31.2774 47.954 31.1504 47.9888C31.0465 48.0172 30.9214 47.9924 30.8216 47.8924C30.8209 47.8917 30.8201 47.8909 30.8194 47.8902L26.4326 43.3864L24.9999 41.9155L23.5672 43.3864L19.1804 47.8902C19.1797 47.8909 19.179 47.8917 19.1783 47.8924C19.0785 47.9924 18.9534 48.0172 18.8495 47.9888C18.7055 47.9493 18.6166 47.8419 18.592 47.7435L18.5907 47.7384L17.048 41.6359L16.5441 39.6428L14.5657 40.2013L8.51196 41.91L8.50581 41.9117C8.39073 41.9446 8.26188 41.9119 8.17492 41.8249C8.08795 41.738 8.05526 41.6091 8.08815 41.494L8.08989 41.4879L9.7986 35.4342L10.357 33.4557L8.36398 32.9519L2.27311 31.4121C2.12957 31.3727 2.04176 31.267 2.01685 31.1718C1.97956 31.0295 2.02751 30.9073 2.09607 30.842L2.10421 30.8343L2.11225 30.8264L6.62323 26.4326L8.09414 24.9999L6.62323 23.5672L2.11225 19.1734L2.10421 19.1656L2.09607 19.1578C2.01094 19.0768 1.98192 18.9658 2.0111 18.8593C2.05052 18.7153 2.15792 18.6263 2.25635 18.6017L2.25636 18.6017L2.26437 18.5997L8.3669 17.0472L10.3562 16.5411L9.7986 14.5657L8.08989 8.51196L8.0899 8.51196L8.08815 8.50581C8.05526 8.39073 8.08795 8.26188 8.17492 8.17492C8.26188 8.08795 8.39073 8.05526 8.50581 8.08815L8.51196 8.08989L14.5657 9.7986L16.5441 10.357L17.048 8.36398L18.5877 2.27311C18.6272 2.12956 18.7329 2.04176 18.828 2.01685C18.9704 1.97956 19.0925 2.02751 19.1578 2.09607Z" stroke="black" stroke-width="4"/>
</svg>
