{
  "accessors": [
    {
      "bufferView": 2,
      "componentType": 5126,
      "count": 41420,
      "max": [
        5.3530378341674805,
        14.260866165161133,
        1.5181070566177368
      ],
      "min": [
        -6.808565139770508,
        9.042598724365234,
        -3.1544198989868164
      ],
      "type": "VEC3"
    },
    {
      "bufferView": 2,
      "byteOffset": 497040,
      "componentType": 5126,
      "count": 41420,
      "max": [
        0.9998303055763245,
        0.9999880194664001,
        0.9999979734420776
      ],
      "min": [
        -0.9995803833007813,
        -0.9999716281890869,
        -0.9999849796295166
      ],
      "type": "VEC3"
    },
    {
      "bufferView": 1,
      "componentType": 5126,
      "count": 41420,
      "max": [
        0.9999790191650391,
        0.999006986618042
      ],
      "min": [
        9.999999974752427e-07,
        7.000000096013537e-06
      ],
      "type": "VEC2"
    },
    {
      "bufferView": 0,
      "componentType": 5125,
      "count": 180000,
      "type": "SCALAR"
    }
  ],
  "asset": {
    "extras": {
      "author": "Przemek Gesicki - DigitWorlds (https://sketchfab.com/DigitWorlds)",
      "license": "CC-BY-NC-4.0 (http://creativecommons.org/licenses/by-nc/4.0/)",
      "source": "https://sketchfab.com/3d-models/old-crocs-by-digitworldscom-0ca69e86ae0c43c8bfd7d28b325456ae",
      "title": "Old Crocs by DigitWorlds.com"
    },
    "generator": "Sketchfab-12.66.0",
    "version": "2.0"
  },
  "bufferViews": [
    {
      "buffer": 0,
      "byteLength": 720000,
      "name": "floatBufferViews",
      "target": 34963
    },
    {
      "buffer": 0,
      "byteLength": 331360,
      "byteOffset": 720000,
      "byteStride": 8,
      "name": "floatBufferViews",
      "target": 34962
    },
    {
      "buffer": 0,
      "byteLength": 994080,
      "byteOffset": 1051360,
      "byteStride": 12,
      "name": "floatBufferViews",
      "target": 34962
    }
  ],
  "buffers": [
    {
      "byteLength": 2045440,
      "uri": "scene.bin"
    }
  ],
  "images": [
    {
      "uri": "textures/crocs_baseColor.jpeg"
    }
  ],
  "materials": [
    {
      "doubleSided": true,
      "name": "crocs",
      "pbrMetallicRoughness": {
        "baseColorTexture": {
          "index": 0
        },
        "metallicFactor": 0.0,
        "roughnessFactor": 0.809798322703596
      }
    }
  ],
  "meshes": [
    {
      "name": "Object_0",
      "primitives": [
        {
          "attributes": {
            "NORMAL": 1,
            "POSITION": 0,
            "TEXCOORD_0": 2
          },
          "indices": 3,
          "material": 0,
          "mode": 4
        }
      ]
    }
  ],
  "nodes": [
    {
      "children": [
        1
      ],
      "matrix": [
        0.9950651526451111,
        0.01356111001223328,
        -0.09829270839691162,
        0.0,
        -0.09907378256320953,
        0.08134146779775642,
        -0.9917499423027039,
        0.0,
        -0.005453956313431263,
        0.9965940117835999,
        0.08228360861539863,
        0.0,
        1.1853986978530884,
        -0.8908437490463257,
        -0.20032379031181355,
        1.0
      ],
      "name": "Sketchfab_model"
    },
    {
      "children": [
        2
      ],
      "name": "crocs.obj.cleaner.materialmerger.gles"
    },
    {
      "mesh": 0,
      "name": "Object_2"
    }
  ],
  "samplers": [
    {
      "magFilter": 9729,
      "minFilter": 9987,
      "wrapS": 10497,
      "wrapT": 10497
    }
  ],
  "scene": 0,
  "scenes": [
    {
      "name": "Sketchfab_Scene",
      "nodes": [
        0
      ]
    }
  ],
  "textures": [
    {
      "sampler": 0,
      "source": 0
    }
  ]
}
