<svg width="87" height="50" viewBox="0 0 87 50" fill="none" xmlns="http://www.w3.org/2000/svg">
<path d="M40.89 22.6745C42.9688 22.6745 44.66 21.1097 44.66 19.1861C44.66 17.2626 42.9688 15.6978 40.89 15.6978C38.8112 15.6978 37.12 17.2626 37.12 19.1861C37.1197 21.1097 38.8112 22.6745 40.89 22.6745ZM40.89 18.7609C41.1434 18.7609 41.3493 18.9514 41.3493 19.1858C41.3493 19.4203 41.1431 19.6108 40.89 19.6108C40.6369 19.6108 40.4307 19.4201 40.4307 19.1858C40.4304 18.9516 40.6366 18.7609 40.89 18.7609Z" fill="black" fill-opacity="0.35"/>
<path d="M36.25 33.1396C38.3288 33.1396 40.02 31.4443 40.02 29.3605C40.02 27.2767 38.3288 25.5814 36.25 25.5814C34.1712 25.5814 32.48 27.2767 32.48 29.3605C32.48 31.4443 34.1712 33.1396 36.25 33.1396ZM36.25 28.8998C36.5034 28.8998 36.7093 29.1065 36.7093 29.3602C36.7093 29.6139 36.5031 29.8206 36.25 29.8206C35.9966 29.8206 35.7907 29.6139 35.7907 29.3602C35.7907 29.1065 35.9969 28.8998 36.25 28.8998Z" fill="black" fill-opacity="0.35"/>
<path d="M22.62 33.721C24.5389 33.721 26.1 32.0257 26.1 29.9419C26.1 27.8581 24.5389 26.1628 22.62 26.1628C20.7011 26.1628 19.14 27.8581 19.14 29.9419C19.1397 32.0257 20.7011 33.721 22.62 33.721ZM22.62 29.4815C22.8539 29.4815 23.044 29.6882 23.044 29.9419C23.044 30.1959 22.8537 30.4023 22.62 30.4023C22.3864 30.4023 22.1961 30.1956 22.1961 29.9419C22.1958 29.6879 22.3861 29.4815 22.62 29.4815Z" fill="black" fill-opacity="0.35"/>
<path d="M70.4267 50C74.4323 49.9277 81.2767 49.7984 86.2807 40.4433C86.4939 40.045 86.6134 39.6029 86.6304 39.1511C86.6304 39.1511 86.6845 32.8512 86.911 30.766C87.4417 25.8797 85.43 21.5134 85.3079 21.2815C84.7708 20.2606 83.6959 19.6479 82.5466 19.7101C81.2206 19.7835 79.8939 19.8209 78.6028 19.8209C76.1781 19.8209 73.8998 19.6864 71.7572 19.4516L79.9421 13.2663C81.5168 12.0766 82.5625 10.3565 82.8867 8.42266C83.2208 6.42958 82.7534 4.45843 81.5706 2.8725C80.209 1.04702 78.0972 0 75.7772 0C74.1437 0 72.5185 0.548383 71.2007 1.54418L54.2233 14.3731C53.1444 13.8197 52.1692 13.2628 51.3015 12.723C45.6628 9.21444 43.0774 5.65143 43.0597 5.62715C42.5547 4.90673 41.7566 4.45043 40.8836 4.38262C40.0117 4.316 39.1522 4.64201 38.543 5.27597C38.4494 5.37338 29.0725 15.056 20.9961 17.3143C18.4543 18.025 15.816 18.2491 13.2645 18.4662C10.2211 18.7247 7.34663 18.9687 5.0069 20.0592C1.96266 21.4779 0.199772 24.533 0.0547522 28.2142C0.050634 28.3143 -0.100269 31.1613 0.117408 33.7857C0.478045 38.1322 1.3714 40.6378 3.01398 41.9096C5.75024 44.0282 26.3281 52.5503 38.5079 48.0916C41.2221 47.0982 43.2833 46.241 44.9397 45.5522C49.8042 43.5287 50.2016 43.364 53.833 44.9038C54.596 45.2271 55.3391 45.546 56.0627 45.8566C61.4531 48.1707 66.55 50 70.4267 50ZM74.9091 6.51723C75.2359 6.27028 75.5615 6.21817 75.7769 6.21817C75.9466 6.21817 76.3693 6.25607 76.6299 6.60577C76.83 6.87374 76.8303 7.17962 76.795 7.38866C76.7605 7.59416 76.6417 7.98531 76.2334 8.29385L54.9537 24.3737C54.6266 24.6207 54.301 24.6725 54.0854 24.6725C53.9159 24.6725 53.4932 24.6349 53.2326 24.2852C53.0326 24.0172 53.0323 23.7114 53.0673 23.5023C53.1017 23.2971 53.2205 22.906 53.6288 22.5974L74.9091 6.51723ZM29.3376 23.3738C29.3376 23.6231 29.1361 23.8257 28.8887 23.8257C28.641 23.8257 28.4398 23.6228 28.4398 23.3738C28.4398 23.1248 28.6413 22.9219 28.8887 22.9219C29.1361 22.9219 29.3376 23.1248 29.3376 23.3738ZM12.775 26.8983C12.775 27.1476 12.5735 27.3502 12.3261 27.3502C12.0785 27.3502 11.8772 27.1473 11.8772 26.8983C11.8772 26.649 12.0787 26.4465 12.3261 26.4465C12.5738 26.4462 12.775 26.649 12.775 26.8983ZM9.22071 24.9097C8.85596 25.485 8.64122 26.1664 8.64122 26.8983C8.64122 28.9435 10.2941 30.6073 12.3258 30.6073C14.3576 30.6073 16.0105 28.9435 16.0105 26.8983C16.0105 25.87 15.5922 24.9387 14.9185 24.2663C17.3103 24.0528 19.9307 23.7581 22.5705 23.02C23.5356 22.7502 24.5063 22.399 25.4723 21.9895C25.3006 22.4177 25.2035 22.8846 25.2035 23.3741C25.2035 25.4193 26.8564 27.0831 28.8881 27.0831C30.9199 27.0831 32.5727 25.4193 32.5727 23.3741C32.5727 21.6404 31.3834 20.1851 29.7841 19.7803C34.1762 17.1684 38.1085 13.8091 40.4694 11.6259C42.2243 13.4318 45.0574 15.9333 49.1097 18.3303C47.9872 19.4522 47.2406 20.8889 46.9759 22.4683C46.6417 24.4617 47.1094 26.4328 48.2922 28.0185C49.6536 29.8437 51.7651 30.8904 54.0851 30.8904C55.7188 30.8904 57.3438 30.342 58.6619 29.3465L65.1781 24.4226C69.1545 25.2449 73.6172 25.7432 78.6023 25.7432C79.3053 25.7432 80.0175 25.7329 80.7337 25.7127C81.1208 27.047 81.4247 28.979 80.7276 30.7192C79.2047 31.3408 75.6316 32.5666 71.1515 32.5666C69.5951 32.5669 68.0449 32.4189 66.5435 32.1275C64.9336 31.8145 63.3513 31.6626 61.7064 31.6626C57.3214 31.6626 53.3106 32.7917 49.4315 33.8834C46.2187 34.7877 42.8965 35.7228 39.2095 36.0876C38.2353 36.1841 37.076 36.233 35.7632 36.233C25.1394 36.233 10.435 33.2761 6.65742 29.3184C6.21736 28.857 6.00086 28.4532 6.0141 28.1177C6.09028 26.2217 6.61624 25.4166 9.22071 24.9097ZM6.73831 37.3075C6.62183 37.0884 6.51152 36.7417 6.41092 36.3076C14.6012 40.66 28.9366 42.155 35.764 42.155C36.3971 42.155 37.0019 42.1441 37.579 42.1237C37.2292 42.2551 36.8713 42.3887 36.4971 42.5258C27.3608 45.8699 9.52193 39.0809 6.73831 37.3075ZM70.5041 44.0756C67.8343 44.1878 63.1193 42.4479 58.3707 40.4089C57.6388 40.0945 56.8872 39.772 56.1159 39.4448C55.4344 39.1558 54.8037 38.9148 54.2101 38.7137C56.7237 38.0682 59.1846 37.5844 61.7067 37.5844C62.9734 37.5844 64.1909 37.7016 65.4293 37.9421C67.2972 38.3048 69.2227 38.489 71.1521 38.4887C75.1227 38.4884 78.4978 37.7159 80.824 36.9735L80.7773 38.2216C77.523 43.9432 73.7981 44.016 70.5041 44.0756Z" fill="black" fill-opacity="0.35"/>
</svg>
